/* XPM */
static char *_b4cc3157ef14402fd8e154c8b138ab64z75POChPRAMw8ez[] = {
/* columns rows colors chars-per-pixel */
"49 78 17 1 ",
"  c black",
". c gray11",
"X c #232323",
"o c #313131",
"O c #3E3E3E",
"+ c #590000",
"@ c #4C4C4C",
"# c gray46",
"$ c #A60000",
"% c #B30000",
"& c #BF0000",
"* c red",
"= c #FF5D5D",
"- c yellow",
"; c #FF9C9C",
": c #FFDADA",
"> c gray97",
/* pixels */
"               ..               ..               ",
"               ..     .. ..     ..               ",
"               ...  .........  ...               ",
"               .oo.....ooo.....oo.               ",
"               .ooo.ooooooooo.ooo.               ",
"               .ooooooooooooooooo.               ",
"             ...ooooooooooooooooo...             ",
"            ..ooooooooooooooooooooo..            ",
"            .oooo....o.....o....oooo.            ",
"           ..ooo..::...:::...::..ooo..           ",
"           .ooo..:::::.:::.:::::..ooo.           ",
"           .ooo.:::::::::::::::::.ooo.           ",
"           .oo.:::::::::::::::::::.oo.           ",
"           .o..:::::::::::::::::::..o.           ",
"           .o.:::::::::::::::::::::.o.           ",
"           .o.::::....:::::....::::.o.           ",
"         ;;...:::......:::......:::...;;         ",
"        ;;:::.:::..>...:::...>..:::.:::;;        ",
"       ;;:::::::..>>>.;:::;.>>>..:::::::;;       ",
"       ;:::;:::::::>*.;:::;.*>:::::::;:::;       ",
"       ;::::;::::::>*.;:::;.*>::::::;::::;       ",
"       ;;:::;;:::....;:::::;....:::;;:::;;       ",
" ....   ;;:::;:::;;;;:::::::;;;;:::;:::;;   .... ",
" .$$$....;;;:;:::::::::;:;:::::::::;:;;;....$$$. ",
"  .$$$$$$$;::;:::::::::::::::::::::;::;$$$$$$$.  ",
"  .$$&&$$$;:;:::::::::::::::::::::::;:;$$$$$$$.  ",
"  .$$&&&&&;:::::::::;;;;;;;;;:::::::::;$$&&&$$.  ",
"   .$$&&&&&;;::::::;+>>+++>>+;::::::;;&&&&&&$.   ",
"   .$$&&&&&&&;:::::;+>>+++>>+;:::::;&&&&&&&$$.   ",
"    .$$&&&&&&&;::::;++>+++>++;::::;&&&&&&&&$.    ",
"    .$$&&&&&&&;::::;+++++++++;::::;&&&&&&&$$.    ",
"    .$$&&&&&&&;::::;+;;;;;;;+;::::;&&&&&&&$$.    ",
"     .$$&&&&&&;::::;;;=====;;;::::;&&&&&&&$.     ",
"     .$$&&&&&&;::::::::;;;::::::::;&&&&&&$$.     ",
"      .$$&.....;;:::::;:::;:::::;;.....&&$.      ",
"      .$$&.oo.%%%;;;:::::::::;;;%%%.oo.&$$.      ",
"      .$$.oo..%%%%%*;;:::::;;*%%%%%..oo&$$.      ",
"       .$.oo.%%%%%%*.:;;;;;:.*%%%%%%.oo.$.       ",
"       ..ooo.%%%%%%*.:::::::.*%%%%%%.ooo..       ",
"       .ooo.%%%%%%%*.:::::::.*%%%%%%%.ooo.       ",
"       .ooo.%%%%%%%*.:::::::.*%%%%%%%.ooo.       ",
"      .oooo.%%%%%%%%*.:::::.*%%%%%%%%.oooo.      ",
"     .oooooo.%%%%%%%*.:::::.*%%%%%%%.oooooo.     ",
"     .oooooo.%%%%%%%*..:::..*%%%%%%%.oooooo.     ",
"     .oo.Ooo.%%%%%%%%*..:..*%%%%%%%%.oO.ooo.     ",
"     .oo.Oooo.%%%%%%%%*.:.*%%%%%%%%.ooO.ooo.     ",
"     .o.Ooooo.%%%%%%%%*...*%%%%%%%%.ooO.ooo.     ",
"     .o.Ooooo.%%%%%%%%%*.*%%%%%%%%%.oO.oooo.     ",
"     ..Ooooooo.%%%%%%%%%*%%%%%%%%%.ooO.oooo.     ",
"     ..Ooo.Ooo.%%%%%%%%%.%%%%%%%%%.ooO.oO.o.     ",
"     .oooo.Oooo.%%%%%%%.-o%%%%%%%.oooO.oO.o.     ",
"     .oooo.Oooo.%%%%%%%.-o%%%%%%%.oooO.oO.o.     ",
"     .ooooo.Oooo.%%%%%%%.%%%%%%%.ooooO.oO.o.     ",
"     .ooooo.Oooo.%%%%%%%%%%%%%%%.oooO.oooO..     ",
"     .ooooo.Oooo.%%%%%%%.%%%%%%%.oooO.oooO..     ",
"     .oooooo.Ooo..%%%%%.-o%%%%%..oooO.oooO..     ",
"     .oooooo.Ooo...%%%%.-o%%%%...ooooooooO..     ",
"     .oooooo.Ooo.@@...........@@.oooooooooo.     ",
"     .oooooooooo.##@@@@@@@@@@@##.oooooooooo.     ",
"    .ooooooooooo.###############.ooooooooooo.    ",
"    .ooooooooooo.###############.ooooooooooo.    ",
"   ..oooo.Oooooo.######@@#######.oooooO.oooo..   ",
"   .ooooo.Oooooo.#####@...######.oooooO.ooooo.   ",
"   .oooo.Ooooooo.#####@. .######.ooooooO.oooo.   ",
"   .oooo.Oooooooo.####@. .#####.oooooooO.oooo.   ",
"  .ooooo.Oooooooo.####@. .#####.oooooooO.ooooo.  ",
"  .ooooo.Ooo.Ooooo.###@. .####.ooooO.ooO.ooooo.  ",
"  .oooo.Oooo.Ooooo.###@. .####.ooooO.oooO.oooo.  ",
"  .oooo.Oooo.Oooooo.##@. .###.oooooO.oooO.oooo.  ",
" .ooooo.Oooo.Ooooooo.#@. .##.ooooooO.oooO.ooooo. ",
" ..oooo.Ooooo.Oooooo.@.. ..#.oooooO.ooooO.oooo.. ",
"  .ooo.Oooooo.Oooooo.@.   .#.oooooO.oooooO.ooo.  ",
" ..ooo.Oooooo.Ooooo....   ....ooooO.oooooO.ooo.. ",
".oooo................X.   .X................oooo.",
"......  .XXXXXXXXXXXXX.   .XXXXXXXXXXXXX.  ......",
"        .oooooooXXXXX..   ..XXXXXooooooo.        ",
"         .......oo....     ....oo.......         ",
"               ....           ....               "
};
